<?xml version="1.0" encoding="UTF-8"?>
<svg id="_图层_1" data-name="图层_1" xmlns="http://www.w3.org/2000/svg" version="1.1" viewBox="0 0 448 332">
  <!-- Generator: Adobe Illustrator 29.0.1, SVG Export Plug-In . SVG Version: 2.1.0 Build 192)  -->
  <defs>
    <style>
      .st0 {
        fill: #ea7ccc;
      }

      .st1 {
        fill: #3ba272;
      }

      .st2 {
        fill: #fc8452;
      }

      .st3 {
        fill: #5470c6;
      }

      .st4, .st5, .st6 {
        fill: none;
        stroke-miterlimit: 10;
      }

      .st4, .st6 {
        stroke: #fff;
      }

      .st7 {
        fill: #e66;
      }

      .st8 {
        fill: #fac858;
      }

      .st9 {
        fill: #91cc75;
      }

      .st10 {
        fill: #fff;
      }

      .st11 {
        fill: #dcdddd;
      }

      .st12 {
        fill: #73c0de;
      }

      .st13 {
        font-size: 8px;
      }

      .st13, .st14 {
        font-family: Arial-BoldMT, Arial;
        font-weight: 700;
      }

      .st5 {
        stroke: #000;
        stroke-width: .75px;
      }

      .st15 {
        fill: #9a60b4;
      }

      .st16, .st17 {
        font-family: ArialMT, Arial;
      }

      .st16, .st14 {
        font-size: 7px;
      }

      .st17 {
        font-size: 6.8px;
      }

      .st6 {
        stroke-width: 2px;
      }
    </style>
  </defs>
  <circle class="st11" cx="197.82" cy="164.58" r="145.6"/>
  <path class="st12" d="M154.78,156.33l-5.3-1.08-5.29-1.08-5.3-1.08-10.59-2.16-5.3-1.08-10.59-2.16-.97,5.73-.58,5.78-.2,5.81h43.23l.88-8.66Z"/>
  <path class="st8" d="M164.54,136.58l-4.08-3.55-4.07-3.55-8.15-7.1-4.07-3.55-4.08-3.55-8.15-7.1-3.52,4.31-3.24,4.53-2.94,4.73-2.63,4.91-2.31,5.07-1.98,5.21-1.64,5.32-1.29,5.42,10.59,2.16,5.3,1.08,10.59,2.16,5.3,1.08,5.29,1.08,5.3,1.08,1.46-5.37,2.14-5.14,2.78-4.82,3.38-4.42Z"/>
  <path class="st9" d="M183.18,124.06l-1.74-5.11-1.75-5.12-1.74-5.12-1.74-5.11-1.75-5.12-1.74-5.11-1.75-5.12-1.74-5.12-5.31,2.01-5.17,2.35-5,2.69-4.82,3.01-4.61,3.32-4.38,3.61-4.13,3.89-3.87,4.15,8.15,7.1,4.08,3.55,4.07,3.55,8.15,7.1,4.07,3.55,4.08,3.55,4-4.02,4.49-3.46,4.91-2.85,5.24-2.18Z"/>
  <path class="st3" d="M199.76,121.83l.99-16.18.33-5.4.33-5.39.33-5.39.33-5.39.33-5.4-5.61-.16-5.6.21-5.58.57-5.53.93-5.46,1.28-5.36,1.64,1.74,5.12,1.75,5.12,1.74,5.11,1.75,5.12,1.74,5.11,1.74,5.12,1.75,5.12,1.74,5.11,5.41-1.46,5.55-.75,5.61-.02Z"/>
  <path class="st2" d="M240.36,164.17l5.4-.1,10.81-.21,5.4-.1,5.4-.1,5.4-.1,10.81-.21-.25-5.15-.56-5.13-.86-5.08-1.16-5.03-1.46-4.94-1.75-4.85-2.04-4.74-2.32-4.61-2.59-4.46-2.85-4.3-3.1-4.12-3.34-3.93-3.57-3.72-3.79-3.5-3.99-3.27-4.17-3.03-4.35-2.77-4.5-2.51-4.65-2.23-4.77-1.95-4.88-1.67-4.97-1.37-5.04-1.08-5.1-.77-5.14-.47-.33,5.4-.33,5.39-.33,5.39-.33,5.39-.33,5.4-.99,16.18,5.33.66,5.2,1.31,5,1.95,4.72,2.55,4.37,3.12,3.95,3.64,3.47,4.1,2.93,4.49,2.35,4.83,1.74,5.08,1.09,5.25.43,5.35Z"/>
  <path class="st1" d="M211.84,205.64l1.84,5.08,1.84,5.08,9.19,25.4,1.84,5.08,4.99-1.98,4.86-2.29,4.71-2.59,4.54-2.87,4.35-3.15,4.15-3.41,3.93-3.66,3.69-3.9,3.44-4.12,3.18-4.33,2.9-4.52,2.62-4.69,2.32-4.84,2.02-4.98,1.7-5.09,1.38-5.19,1.06-5.26.73-5.32.4-5.35.07-5.37-10.81.21-5.4.1-5.4.1-5.4.1-10.81.21-5.4.1-.24,5.36-.9,5.29-1.54,5.14-2.17,4.91-2.76,4.6-3.31,4.23-3.81,3.78-4.25,3.28-4.62,2.73-4.93,2.13Z"/>
  <path class="st7" d="M153.9,164.98h-43.23l.15,5.18.47,5.16.77,5.13,1.08,5.07,1.38,4.99,1.68,4.9,1.97,4.79,2.25,4.67,2.52,4.52,2.79,4.37,3.05,4.19,3.3,4,3.53,3.79,3.75,3.58,3.96,3.34,4.15,3.1,4.33,2.85,4.49,2.58,4.64,2.31,4.77,2.03,4.88,1.74,4.98,1.44,5.06,1.14,5.11.84,5.16.53,5.17.22,5.18-.09,5.16-.4,5.13-.71,5.08-1.02,5.01-1.32,4.92-1.62-1.84-5.08-9.19-25.4-1.84-5.08-1.84-5.08-4.97,1.47-5.11.86-5.17.25-5.16-.38-5.08-.99-4.93-1.59-4.7-2.17-4.41-2.72-4.05-3.22-3.64-3.68-3.17-4.1-2.66-4.44-2.11-4.73-1.53-4.95-.93-5.09-.31-5.17Z"/>
  <path class="st1" d="M181.74,62.12l-.77-5.14-1.54-10.29-.77-5.14-1.54-10.29-.77-5.14-.77-5.14-5.17.87-5.13,1.06-5.09,1.24-5.04,1.42-4.99,1.6,1.68,4.92,1.68,4.92,1.68,4.92,1.68,4.92,1.68,4.92,1.68,4.92,1.68,4.92,1.68,4.92,5.96-1.83,6.06-1.47,6.14-1.11Z"/>
  <path class="st2" d="M203.45,61.17l1.26-20.76.32-5.19.95-15.57-5.08-.22-5.08-.04-5.08.13-5.07.31-5.06.49-5.04.66.77,5.14.77,5.14,1.54,10.29.77,5.14,1.54,10.29.77,5.14,5.4-.66,5.43-.38,5.44-.1,5.44.19Z"/>
  <path class="st7" d="M151.8,71.37l-2.27-4.68-2.27-4.68-2.27-4.68-2.27-4.68-2.27-4.68-2.27-4.68-2.27-4.68-2.27-4.68-4.76,2.41-4.67,2.58-4.57,2.75-4.47,2.92-4.35,3.08-4.24,3.24-4.12,3.39-3.99,3.54-3.86,3.68-3.72,3.82-3.58,3.96,3.92,3.41,11.76,10.25,3.92,3.41,3.92,3.42,3.92,3.42,3.92,3.41,3.54-3.86,3.73-3.68,3.91-3.49,4.08-3.28,4.24-3.08,4.39-2.86,4.53-2.63,4.66-2.4Z"/>
  <path class="st12" d="M163.58,66.54l-1.68-4.92-1.68-4.92-1.68-4.92-1.68-4.92-1.68-4.92-1.68-4.92-1.68-4.92-1.68-4.92-5.59,2.03-5.5,2.26-5.4,2.48,2.27,4.68,2.27,4.68,2.27,4.68,2.27,4.68,2.27,4.68,2.27,4.68,2.27,4.68,2.27,4.68,5.81-2.6,5.96-2.24Z"/>
  <path class="st9" d="M115.83,100.12l-4.07-3.24-4.07-3.24-8.13-6.49-4.07-3.24-4.07-3.24-4.07-3.24-4.07-3.24-3.22,4.19-3.07,4.3-2.91,4.41-2.75,4.52-2.58,4.61-2.41,4.7-2.24,4.79-2.06,4.86-1.88,4.94-1.71,5-1.52,5.06-1.34,5.11-1.15,5.16,5.1,1.04,5.09,1.04,5.1,1.04,10.19,2.08,5.1,1.04,10.19,2.08,1.23-5.31,1.51-5.24,1.78-5.16,2.05-5.05,2.31-4.94,2.57-4.81,2.81-4.67,3.06-4.51,3.29-4.35Z"/>
  <path class="st8" d="M118.72,96.65l-3.92-3.41-3.92-3.42-3.92-3.42-3.92-3.41-11.76-10.25-3.92-3.41-4.06,4.86,4.07,3.24,4.07,3.24,4.07,3.24,4.07,3.24,8.13,6.49,4.07,3.24,4.07,3.24,2.9-3.48Z"/>
  <path class="st0" d="M93.96,151.82l-5.16-.66-10.32-1.31-5.16-.66-5.16-.66-5.16-.66-10.32-1.31-.65,6.12-.39,6.15-.13,6.16h41.6l.21-6.59.63-6.57Z"/>
  <path class="st3" d="M95.23,144.17l-10.19-2.08-5.1-1.04-10.19-2.08-5.1-1.04-5.09-1.04-5.1-1.04-.99,5.34-.79,5.38,10.32,1.31,5.16.66,5.16.66,5.16.66,10.32,1.31,5.16.66,1.27-7.66Z"/>
  <path class="st15" d="M139.05,251.26l-2.9,4.32-2.91,4.31-5.81,8.63-2.91,4.32-8.71,12.94,4.25,2.76,4.35,2.61,4.43,2.45,4.51,2.3,4.6,2.14,4.67,1.98,4.73,1.82,4.79,1.65,4.85,1.48,4.9,1.31,4.94,1.14,4.97.97,5.01.79,5.03.62,5.05.45,5.06.27,5.07.09,5.07-.08,5.06-.26,5.05-.44,5.03-.61,5.01-.79,4.98-.96,4.94-1.13,4.9-1.3,4.85-1.47,4.79-1.64-7.08-19.56-1.77-4.89-1.77-4.89-3.54-9.78-4.88,1.63-4.95,1.39-5.02,1.14-5.07.89-5.1.64-5.13.39-5.14.13-5.14-.12-5.13-.37-5.11-.63-5.07-.88-5.02-1.13-4.95-1.38-4.88-1.62-4.79-1.86-4.7-2.09-4.59-2.32-4.47-2.55-4.33-2.77Z"/>
  <path class="st0" d="M108.26,219.02l-17.77,10.81-4.45,2.7-13.33,8.11,2.8,4.43,2.96,4.33,3.11,4.21,3.26,4.1,3.41,3.98,3.55,3.86,3.69,3.72,3.82,3.59,3.94,3.45,4.07,3.31,4.18,3.16,4.29,3,8.71-12.94,2.91-4.32,5.81-8.63,2.91-4.31,2.9-4.32-4.07-2.88-3.93-3.08-3.78-3.26-3.62-3.44-3.45-3.61-3.27-3.77-3.09-3.92-2.89-4.07-2.69-4.2Z"/>
  <path class="st3" d="M100.61,203.73l-4.83,1.94-4.83,1.94-4.82,1.94-4.83,1.94-4.82,1.94-4.83,1.94-4.82,1.94-4.83,1.94,2.35,5.51,2.57,5.41,2.79,5.3,3.01,5.18,13.33-8.11,4.45-2.7,17.77-10.81-2.83-4.95-2.55-5.1-2.27-5.24Z"/>
  <path class="st9" d="M93.14,167.01l-10.4.2-5.2.1-10.4.2-5.2.1-5.2.1-5.2.1.2,5.27.39,5.26.58,5.24.77,5.22.96,5.19,1.15,5.15,1.33,5.1,1.51,5.05,1.7,4.99,1.87,4.93,4.83-1.94,4.82-1.94,4.83-1.94,4.82-1.94,4.83-1.94,4.82-1.94,4.83-1.94,4.83-1.94-1.88-5.04-1.61-5.13-1.34-5.21-1.07-5.27-.8-5.32-.52-5.35-.24-5.38Z"/>
  <path class="st8" d="M93.12,164.98h-41.6l.03,2.83,5.2-.1,5.2-.1,5.2-.1,10.4-.2,5.2-.1,10.4-.2-.02-2.02Z"/>
  <path class="st7" d="M294.43,201.74l38.92,14.7,1.7-4.73,1.53-4.79,1.37-4.84,1.2-4.88,1.03-4.93.86-4.95.68-4.98.51-5,.34-5.02.17-5.03v-5.03s-5.21.1-5.21.1l-5.2.1-5.2.1-5.2.1-10.4.2-5.2.1-5.2.1-.02,4.94-.26,4.93-.49,4.92-.73,4.89-.96,4.85-1.18,4.8-1.41,4.73-1.64,4.66Z"/>
  <path class="st12" d="M288.05,215.49l4.55,2.53,18.18,10.1,4.55,2.53,4.55,2.53,4.55,2.52,2.49-4.69,2.32-4.77,2.14-4.85,1.96-4.93-38.92-14.7-1.9,4.68-2.13,4.59-2.35,4.48Z"/>
  <path class="st1" d="M232.53,262.79l3.54,9.78,1.77,4.89,1.77,4.89,7.08,19.56,4.64-1.77,4.58-1.93,4.51-2.08,4.44-2.23,4.36-2.39,4.28-2.53,4.19-2.68,4.09-2.82,3.99-2.96,3.89-3.09,3.78-3.22,3.67-3.35,3.55-3.47,3.43-3.59,3.31-3.71,3.18-3.82,3.05-3.92,2.91-4.03,2.78-4.12,2.63-4.21,2.49-4.3-4.55-2.52-4.55-2.53-4.55-2.53-18.18-10.1-4.55-2.53-2.51,4.29-2.72,4.16-2.91,4.03-3.1,3.88-3.28,3.73-3.46,3.57-3.62,3.4-3.78,3.22-3.93,3.04-4.07,2.85-4.2,2.65-4.33,2.44-4.44,2.23-4.54,2.02-4.63,1.8Z"/>
  <path class="st2" d="M296.42,134.01l19.86-6.2,4.97-1.55,14.89-4.65-1.58-4.77-1.74-4.71-1.9-4.65-2.06-4.58-2.22-4.51-2.37-4.43-2.53-4.34-2.67-4.25-2.82-4.16-2.96-4.06-3.1-3.96-3.23-3.84-3.36-3.73-3.49-3.61-3.61-3.49-3.73-3.37-3.85-3.23-3.95-3.1-4.06-2.96-4.16-2.82-4.25-2.67-4.34-2.52-4.43-2.37-4.51-2.22-4.58-2.06-4.65-1.91-4.71-1.74-4.77-1.58-4.82-1.41-4.87-1.25-4.91-1.08-4.94-.9-4.97-.74-4.99-.56-5.01-.39-.95,15.57-.32,5.19-1.26,20.76,5.01.43,4.98.67,4.94.91,4.89,1.14,4.83,1.38,4.76,1.61,4.68,1.84,4.58,2.06,4.48,2.28,4.36,2.49,4.24,2.7,4.1,2.9,3.95,3.1,3.8,3.28,3.63,3.47,3.47,3.64,3.28,3.8,3.1,3.95,2.9,4.1,2.71,4.24,2.49,4.36,2.28,4.47,2.06,4.58,1.84,4.68,1.61,4.76Z"/>
  <path class="st15" d="M301.12,163.03l5.2-.1,5.2-.1,10.4-.2,5.2-.1,5.2-.1,5.2-.1,5.2-.1-.19-5.16-.37-5.15-.55-5.13-.73-5.11-.92-5.08-1.09-5.04-1.27-5-1.45-4.95-14.89,4.65-4.97,1.55-19.86,6.2,1.6,5.68,1.27,5.76.95,5.82.61,5.87.28,5.89Z"/>
  <line class="st4" x1="199.66" y1="123.46" x2="205.98" y2="19.64"/>
  <line class="st4" x1="183.71" y1="125.6" x2="150.16" y2="27.16"/>
  <line class="st4" x1="238.73" y1="164.2" x2="342.72" y2="162.24"/>
  <line class="st4" x1="211.29" y1="204.1" x2="246.68" y2="301.91"/>
  <line class="st4" x1="155.53" y1="164.98" x2="51.52" y2="164.98"/>
  <line class="st4" x1="156.37" y1="156.66" x2="54.46" y2="135.84"/>
  <line class="st4" x1="165.77" y1="137.65" x2="87.36" y2="69.31"/>
  <circle class="st10" cx="197.14" cy="165.03" r="43.94"/>
  <circle class="st6" cx="197.14" cy="165.03" r="145.6"/>
  <text class="st14" transform="translate(153.41 218.73) rotate(-42.33)"><tspan x="0" y="0">ISM</tspan></text>
  <text class="st14" transform="translate(240 196.57) rotate(37.96)"><tspan x="0" y="0">NIC</tspan></text>
  <text class="st14" transform="translate(117.28 159.78) rotate(5.41)"><tspan x="0" y="0">intergenic</tspan></text>
  <text class="st14" transform="translate(118.72 129.61) rotate(25.73)"><tspan x="0" y="0">genic_intron</tspan></text>
  <text class="st14" transform="translate(238.03 130.38) rotate(-40.57)"><tspan x="0" y="0">NNC</tspan></text>
  <text class="st14" transform="translate(155.36 107.44) rotate(54.95)"><tspan x="0" y="0">genic</tspan></text>
  <text class="st14" transform="translate(184.8 89.14) rotate(82.41)"><tspan x="0" y="0">antisense</tspan></text>
  <text class="st16" transform="translate(141.55 13.07)"><tspan x="0" y="0">mono-exon</tspan></text>
  <text class="st16" transform="translate(189.83 13.07)"><tspan x="0" y="0">multi-exon</tspan></text>
  <text class="st16" transform="translate(298.64 54.19)"><tspan x="0" y="0">at least one novel splicesite</tspan></text>
  <text class="st16" transform="translate(346.89 146.25)"><tspan x="0" y="0">intron retention</tspan></text>
  <text class="st16" transform="translate(345.1 193.12)"><tspan x="0" y="0">combination of known junctions</tspan></text>
  <text class="st16" transform="translate(330.16 229.93)"><tspan x="0" y="0">combination of known splicesites</tspan></text>
  <text class="st16" transform="translate(295.23 278.04)"><tspan x="0" y="0">intron retention</tspan></text>
  <text class="st16" transform="translate(136.56 320.67)"><tspan x="0" y="0">3prime fragment</tspan></text>
  <text class="st16" transform="translate(43.19 275.89)"><tspan x="0" y="0">5prime fragment</tspan></text>
  <text class="st16" transform="translate(15.57 235.69)"><tspan x="0" y="0">internal fragment</tspan></text>
  <text class="st16" transform="translate(6.65 201.74)"><tspan x="0" y="0">intron retention</tspan></text>
  <text class="st16" transform="translate(6.3 171.32)"><tspan x="0" y="0">mono-exon</tspan></text>
  <text class="st16" transform="translate(13.01 156.33)"><tspan x="0" y="0">mono-exon</tspan></text>
  <text class="st16" transform="translate(19.77 142.03)"><tspan x="0" y="0">multi-exon</tspan></text>
  <text class="st16" transform="translate(26.19 103.69)"><tspan x="0" y="0">mono-exon</tspan></text>
  <text class="st16" transform="translate(47.29 74.18)"><tspan x="0" y="0">multi-exon</tspan></text>
  <text class="st16" transform="translate(72.41 49.27)"><tspan x="0" y="0">mono-exon</tspan></text>
  <text class="st16" transform="translate(108.57 29.66)"><tspan x="0" y="0">multi-exon</tspan></text>
  <line class="st5" x1="43.42" y1="169.83" x2="51.52" y2="166.4"/>
  <line class="st5" x1="85.65" y1="71.37" x2="80.64" y2="71.55"/>
  <line class="st5" x1="163.58" y1="22.74" x2="162.45" y2="16.09"/>
  <line class="st5" x1="190.75" y1="19.51" x2="196.12" y2="15.21"/>
  <text class="st13" transform="translate(178.69 162.15)"><tspan x="0" y="0">SQANTI3 </tspan><tspan x="-9.12" y="9.6">classifications</tspan></text>
  <text class="st16" transform="translate(175.06 76.35) rotate(-12.25)"><tspan x="0" y="0">6.19%</tspan></text>
  <text class="st16" transform="translate(137.46 93.2) rotate(-35.05)"><tspan x="0" y="0">8.36%</tspan></text>
  <text class="st16" transform="translate(108.11 133.01) rotate(-64.27)"><tspan x="0" y="0">8.20%</tspan></text>
  <text class="st17" transform="translate(102.61 165.42) rotate(-84.59)"><tspan x="0" y="0">3.21%</tspan></text>
  <text class="st16" transform="translate(140.04 240.3) rotate(-132.33)"><tspan x="0" y="0">30.53%</tspan></text>
  <text class="st16" transform="translate(280.26 206.12) rotate(127.96)"><tspan x="0" y="0">19.77%</tspan></text>
  <text class="st16" transform="translate(258.6 94.42) rotate(49.43)"><tspan x="0" y="0">23.73%</tspan></text>
</svg>